<svg xmlns="http://www.w3.org/2000/svg" width="96" height="96" viewBox="0 0 96 96" role="img" aria-label="Gas Plasma CLJ language icon">
  <defs>
    <linearGradient id="tile" x1="14" y1="10" x2="82" y2="86" gradientUnits="userSpaceOnUse">
      <stop offset="0" stop-color="#2A1200"/>
      <stop offset=".48" stop-color="#160700"/>
      <stop offset="1" stop-color="#080200"/>
    </linearGradient>
    <linearGradient id="ember" x1="20" y1="15" x2="76" y2="83" gradientUnits="userSpaceOnUse">
      <stop offset="0" stop-color="#FFD2A6"/>
      <stop offset=".28" stop-color="#FFD700"/>
      <stop offset=".72" stop-color="#FF8C00"/>
      <stop offset="1" stop-color="#FF4500"/>
    </linearGradient>
    <linearGradient id="panel" x1="24" y1="24" x2="72" y2="72" gradientUnits="userSpaceOnUse">
      <stop offset="0" stop-color="#2A1200"/>
      <stop offset=".6" stop-color="#100600"/>
      <stop offset="1" stop-color="#050100"/>
    </linearGradient>
    <linearGradient id="darkGlass" x1="24" y1="22" x2="72" y2="72" gradientUnits="userSpaceOnUse">
      <stop offset="0" stop-color="#2A1200"/>
      <stop offset=".58" stop-color="#100600"/>
      <stop offset="1" stop-color="#050100"/>
    </linearGradient>
    <radialGradient id="disc" cx="39%" cy="31%" r="68%">
      <stop offset="0" stop-color="#FFF0DB"/>
      <stop offset=".28" stop-color="#E8C547"/>
      <stop offset=".56" stop-color="#FF9B7A"/>
      <stop offset="1" stop-color="#4D2600"/>
    </radialGradient>
    <filter id="shadow" x="-20%" y="-20%" width="140%" height="150%">
      <feDropShadow dx="0" dy="4" stdDeviation="3" flood-color="#050100" flood-opacity=".48"/>
    </filter>
    <filter id="softGlow" x="-20%" y="-20%" width="140%" height="140%">
      <feGaussianBlur stdDeviation="1.6" result="blur"/>
      <feMerge><feMergeNode in="blur"/><feMergeNode in="SourceGraphic"/></feMerge>
    </filter>
  </defs>
  <g filter="url(#shadow)">
    <path d="M11.503 12.216c-.119.259-.251.549-.387.858-.482 1.092-1.016 2.42-1.21 3.271a4.91 4.91 0 0 0-.112 1.096c0 .164.009.337.022.514.682.25 1.417.388 2.186.39a6.39 6.39 0 0 0 2.001-.326 3.808 3.808 0 0 1-.418-.441c-.854-1.089-1.329-2.682-2.082-5.362M8.355 6.813A6.347 6.347 0 0 0 5.657 12a6.347 6.347 0 0 0 2.625 5.134c.39-1.622 1.366-3.107 2.83-6.084-.087-.239-.186-.5-.297-.775-.406-1.018-.991-2.198-1.513-2.733a4.272 4.272 0 0 0-.947-.729M17.527 19.277c-.84-.105-1.533-.232-2.141-.446A7.625 7.625 0 0 1 4.376 12a7.6 7.6 0 0 1 2.6-5.73 5.582 5.582 0 0 0-1.324-.162c-2.236.02-4.597 1.258-5.58 4.602-.092.486-.07.854-.07 1.29 0 6.627 5.373 12 12 12 4.059 0 7.643-2.017 9.815-5.101-1.174.293-2.305.433-3.271.436-.362 0-.702-.02-1.019-.058M15.273 16.952c.074.036.242.097.475.163a6.354 6.354 0 0 0 2.6-5.115h-.002a6.354 6.354 0 0 0-6.345-6.345 6.338 6.338 0 0 0-1.992.324c1.289 1.468 1.908 3.566 2.507 5.862l.001.003c.001.002.192.637.518 1.48.326.842.789 1.885 1.293 2.645.332.51.697.876.945.983M12.001 0a11.98 11.98 0 0 0-9.752 5.013c1.134-.71 2.291-.967 3.301-.957 1.394.004 2.491.436 3.017.732.127.073.248.152.366.233A7.625 7.625 0 0 1 19.625 12a7.605 7.605 0 0 1-2.268 5.425c.344.038.709.063 1.084.061 1.328 0 2.766-.293 3.842-1.198.703-.592 1.291-1.458 1.617-2.757.065-.502.1-1.012.1-1.531 0-6.627-5.371-12-11.999-12" transform="translate(12.00 12.00) scale(3)" fill="#5881D8" stroke="#080200" stroke-width="0.52" paint-order="stroke fill" stroke-linejoin="round"/>
  </g>
</svg>
