<svg xmlns="http://www.w3.org/2000/svg" width="96" height="96" viewBox="0 0 96 96" role="img" aria-label="Gas Plasma FOR language icon">
  <defs>
    <linearGradient id="tile" x1="14" y1="10" x2="82" y2="86" gradientUnits="userSpaceOnUse">
      <stop offset="0" stop-color="#2A1200"/>
      <stop offset=".48" stop-color="#160700"/>
      <stop offset="1" stop-color="#080200"/>
    </linearGradient>
    <linearGradient id="ember" x1="20" y1="15" x2="76" y2="83" gradientUnits="userSpaceOnUse">
      <stop offset="0" stop-color="#FFD2A6"/>
      <stop offset=".28" stop-color="#FFD700"/>
      <stop offset=".72" stop-color="#FF8C00"/>
      <stop offset="1" stop-color="#FF4500"/>
    </linearGradient>
    <linearGradient id="panel" x1="24" y1="24" x2="72" y2="72" gradientUnits="userSpaceOnUse">
      <stop offset="0" stop-color="#2A1200"/>
      <stop offset=".6" stop-color="#100600"/>
      <stop offset="1" stop-color="#050100"/>
    </linearGradient>
    <linearGradient id="darkGlass" x1="24" y1="22" x2="72" y2="72" gradientUnits="userSpaceOnUse">
      <stop offset="0" stop-color="#2A1200"/>
      <stop offset=".58" stop-color="#100600"/>
      <stop offset="1" stop-color="#050100"/>
    </linearGradient>
    <radialGradient id="disc" cx="39%" cy="31%" r="68%">
      <stop offset="0" stop-color="#FFF0DB"/>
      <stop offset=".28" stop-color="#E8C547"/>
      <stop offset=".56" stop-color="#FF9B7A"/>
      <stop offset="1" stop-color="#4D2600"/>
    </radialGradient>
    <filter id="shadow" x="-20%" y="-20%" width="140%" height="150%">
      <feDropShadow dx="0" dy="4" stdDeviation="3" flood-color="#050100" flood-opacity=".48"/>
    </filter>
    <filter id="softGlow" x="-20%" y="-20%" width="140%" height="140%">
      <feGaussianBlur stdDeviation="1.6" result="blur"/>
      <feMerge><feMergeNode in="blur"/><feMergeNode in="SourceGraphic"/></feMerge>
    </filter>
  </defs>
  <g filter="url(#shadow)">
    <path d="M19.536 0H4.464A4.463 4.463 0 0 0 0 4.464v15.073A4.463 4.463 0 0 0 4.464 24h15.073A4.463 4.463 0 0 0 24 19.536V4.464A4.463 4.463 0 0 0 19.536 0zm1.193 6.493v3.871l-.922-.005c-.507-.003-.981-.021-1.052-.041-.128-.036-.131-.05-.192-.839-.079-1.013-.143-1.462-.306-2.136-.352-1.457-1.096-2.25-2.309-2.463-.509-.089-2.731-.176-4.558-.177L10.13 4.7v5.82l.662-.033c.757-.038 1.353-.129 1.64-.252.306-.131.629-.462.781-.799.158-.352.262-.815.345-1.542.033-.286.07-.572.083-.636.024-.116.028-.117 1.036-.117h1.012v9.3h-2.062l-.035-.536c-.063-.971-.252-1.891-.479-2.331-.311-.601-.922-.871-2.151-.95a11.422 11.422 0 0 1-.666-.059l-.172-.027.02 2.926c.021 3.086.03 3.206.265 3.465.241.266.381.284 2.827.368.05.002.065.246.065 1.041v1.039H3.271v-1.039c0-.954.007-1.039.091-1.041.05-.001.543-.023 1.097-.049.891-.042 1.033-.061 1.244-.167a.712.712 0 0 0 .345-.328c.106-.206.107-.254.107-6.78 0-6.133-.006-6.584-.09-6.737a.938.938 0 0 0-.553-.436c-.104-.032-.65-.07-1.215-.086l-1.026-.027V2.622h17.458v3.871z" transform="translate(12.00 12.00) scale(3)" fill="#734F96" stroke="#080200" stroke-width="0.52" paint-order="stroke fill" stroke-linejoin="round"/>
  </g>
</svg>
