<svg xmlns="http://www.w3.org/2000/svg" width="96" height="96" viewBox="0 0 96 96" role="img" aria-label="Gas Plasma HBS language icon">
  <defs>
    <linearGradient id="tile" x1="14" y1="10" x2="82" y2="86" gradientUnits="userSpaceOnUse">
      <stop offset="0" stop-color="#2A1200"/>
      <stop offset=".48" stop-color="#160700"/>
      <stop offset="1" stop-color="#080200"/>
    </linearGradient>
    <linearGradient id="ember" x1="20" y1="15" x2="76" y2="83" gradientUnits="userSpaceOnUse">
      <stop offset="0" stop-color="#FFD2A6"/>
      <stop offset=".28" stop-color="#FFD700"/>
      <stop offset=".72" stop-color="#FF8C00"/>
      <stop offset="1" stop-color="#FF4500"/>
    </linearGradient>
    <linearGradient id="panel" x1="24" y1="24" x2="72" y2="72" gradientUnits="userSpaceOnUse">
      <stop offset="0" stop-color="#2A1200"/>
      <stop offset=".6" stop-color="#100600"/>
      <stop offset="1" stop-color="#050100"/>
    </linearGradient>
    <linearGradient id="darkGlass" x1="24" y1="22" x2="72" y2="72" gradientUnits="userSpaceOnUse">
      <stop offset="0" stop-color="#2A1200"/>
      <stop offset=".58" stop-color="#100600"/>
      <stop offset="1" stop-color="#050100"/>
    </linearGradient>
    <radialGradient id="disc" cx="39%" cy="31%" r="68%">
      <stop offset="0" stop-color="#FFF0DB"/>
      <stop offset=".28" stop-color="#E8C547"/>
      <stop offset=".56" stop-color="#FF9B7A"/>
      <stop offset="1" stop-color="#4D2600"/>
    </radialGradient>
    <filter id="shadow" x="-20%" y="-20%" width="140%" height="150%">
      <feDropShadow dx="0" dy="4" stdDeviation="3" flood-color="#050100" flood-opacity=".48"/>
    </filter>
    <filter id="softGlow" x="-20%" y="-20%" width="140%" height="140%">
      <feGaussianBlur stdDeviation="1.6" result="blur"/>
      <feMerge><feMergeNode in="blur"/><feMergeNode in="SourceGraphic"/></feMerge>
    </filter>
  </defs>
  <g filter="url(#shadow)">
    <path d="M9.1 4.948a3.45 3.45 0 0 0-.398.014C6.32 5.15 5.373 6.375 4.802 6.9c-.572.525-1.656 1.763-2.376 1.545-.721-.217-.924-1.107-.67-1.381s.454-.225.613 0c.097.18.145.383.14.587a1.36 1.36 0 0 0 .438-.665.792.792 0 0 0-.443-1.017c-1.3-.659-2.139.514-2.26.787-.122.273-.336.707-.2 1.695.135.989.612 1.902 2.104 2.261a6.31 6.31 0 0 0 4.238-.495l4.41-1.84a5.408 5.408 0 0 1 .556-.101v9.864c0 .506.316.913.708.913.391 0 .707-.407.707-.913V8.29a5.408 5.408 0 0 1 .437.088l4.41 1.84a6.31 6.31 0 0 0 4.238.494c1.492-.36 1.969-1.272 2.105-2.26.135-.989-.08-1.423-.2-1.696-.122-.273-.962-1.446-2.261-.787a.792.792 0 0 0-.443 1.017c.076.26.229.492.437.665a1.19 1.19 0 0 1 .141-.587c.159-.225.359-.274.613 0s.051 1.164-.67 1.382c-.72.217-1.804-1.02-2.376-1.546-.571-.525-1.518-1.75-3.9-1.938A3.45 3.45 0 0 0 12 6.653a3.45 3.45 0 0 0-2.9-1.705zm12.39 2.703v.004l.006.002c-.002-.002-.004-.004-.006-.004zm-18.98 0c-.002.002-.004.004-.006.004l.006-.001V7.65z" transform="translate(12.00 12.00) scale(3)" fill="#FFD2A6" stroke="#080200" stroke-width="0.52" paint-order="stroke fill" stroke-linejoin="round"/>
  </g>
</svg>
