<svg xmlns="http://www.w3.org/2000/svg" width="96" height="96" viewBox="0 0 96 96" role="img" aria-label="Gas Plasma NIM language icon">
  <defs>
    <linearGradient id="tile" x1="14" y1="10" x2="82" y2="86" gradientUnits="userSpaceOnUse">
      <stop offset="0" stop-color="#2A1200"/>
      <stop offset=".48" stop-color="#160700"/>
      <stop offset="1" stop-color="#080200"/>
    </linearGradient>
    <linearGradient id="ember" x1="20" y1="15" x2="76" y2="83" gradientUnits="userSpaceOnUse">
      <stop offset="0" stop-color="#FFD2A6"/>
      <stop offset=".28" stop-color="#FFD700"/>
      <stop offset=".72" stop-color="#FF8C00"/>
      <stop offset="1" stop-color="#FF4500"/>
    </linearGradient>
    <linearGradient id="panel" x1="24" y1="24" x2="72" y2="72" gradientUnits="userSpaceOnUse">
      <stop offset="0" stop-color="#2A1200"/>
      <stop offset=".6" stop-color="#100600"/>
      <stop offset="1" stop-color="#050100"/>
    </linearGradient>
    <linearGradient id="darkGlass" x1="24" y1="22" x2="72" y2="72" gradientUnits="userSpaceOnUse">
      <stop offset="0" stop-color="#2A1200"/>
      <stop offset=".58" stop-color="#100600"/>
      <stop offset="1" stop-color="#050100"/>
    </linearGradient>
    <radialGradient id="disc" cx="39%" cy="31%" r="68%">
      <stop offset="0" stop-color="#FFF0DB"/>
      <stop offset=".28" stop-color="#E8C547"/>
      <stop offset=".56" stop-color="#FF9B7A"/>
      <stop offset="1" stop-color="#4D2600"/>
    </radialGradient>
    <filter id="shadow" x="-20%" y="-20%" width="140%" height="150%">
      <feDropShadow dx="0" dy="4" stdDeviation="3" flood-color="#050100" flood-opacity=".48"/>
    </filter>
    <filter id="softGlow" x="-20%" y="-20%" width="140%" height="140%">
      <feGaussianBlur stdDeviation="1.6" result="blur"/>
      <feMerge><feMergeNode in="blur"/><feMergeNode in="SourceGraphic"/></feMerge>
    </filter>
  </defs>
  <g filter="url(#shadow)">
    <path d="M12.095 3.2s-.92.778-1.857 1.55c-.964-.032-2.856.199-3.88.598C5.412 4.708 4.582 4 4.582 4s-.709 1.305-1.154 2.07c-.662.377-1.325.8-1.917 1.36C.824 7.14.026 6.782 0 6.77c.911 1.967 1.524 3.936 3.19 5.12 2.654-4.483 14.983-4.07 17.691-.025 1.75-.977 2.43-3.078 3.119-5.018-.075.026-1.012.362-1.619.61-.363-.423-1.217-1.072-1.702-1.385a96.008 96.008 0 00-1.131-2.122s-.794.632-1.715 1.322c-1.243-.246-2.747-.544-4.012-.47A52.988 52.988 0 0112.095 3.2zM.942 10.95l2.189 5.67c3.801 5.367 13.508 5.74 17.74.105 1.001-2.415 2.352-5.808 2.352-5.808-1.086 1.72-2.852 2.909-3.94 3.549-.774.453-2.558.727-2.558.727l-4.684-2.597-4.71 2.545s-1.761-.303-2.558-.701c-1.608-.92-2.69-2.004-3.83-3.49z" transform="translate(12.00 12.00) scale(3)" fill="#FFE953" stroke="#080200" stroke-width="0.52" paint-order="stroke fill" stroke-linejoin="round"/>
  </g>
</svg>
