<svg xmlns="http://www.w3.org/2000/svg" width="96" height="96" viewBox="0 0 96 96" role="img" aria-label="Gas Plasma PDF icon">
  <defs>
    <linearGradient id="tile" x1="14" y1="10" x2="82" y2="86" gradientUnits="userSpaceOnUse">
      <stop offset="0" stop-color="#2A1200"/>
      <stop offset=".48" stop-color="#160700"/>
      <stop offset="1" stop-color="#080200"/>
    </linearGradient>
    <linearGradient id="ember" x1="20" y1="15" x2="76" y2="83" gradientUnits="userSpaceOnUse">
      <stop offset="0" stop-color="#FFD2A6"/>
      <stop offset=".28" stop-color="#FFD700"/>
      <stop offset=".72" stop-color="#FF8C00"/>
      <stop offset="1" stop-color="#FF4500"/>
    </linearGradient>
    <linearGradient id="panel" x1="24" y1="24" x2="72" y2="72" gradientUnits="userSpaceOnUse">
      <stop offset="0" stop-color="#2A1200"/>
      <stop offset=".6" stop-color="#100600"/>
      <stop offset="1" stop-color="#050100"/>
    </linearGradient>
    <linearGradient id="darkGlass" x1="24" y1="22" x2="72" y2="72" gradientUnits="userSpaceOnUse">
      <stop offset="0" stop-color="#2A1200"/>
      <stop offset=".58" stop-color="#100600"/>
      <stop offset="1" stop-color="#050100"/>
    </linearGradient>
    <radialGradient id="disc" cx="39%" cy="31%" r="68%">
      <stop offset="0" stop-color="#FFF0DB"/>
      <stop offset=".28" stop-color="#E8C547"/>
      <stop offset=".56" stop-color="#FF9B7A"/>
      <stop offset="1" stop-color="#4D2600"/>
    </radialGradient>
    <filter id="shadow" x="-20%" y="-20%" width="140%" height="150%">
      <feDropShadow dx="0" dy="4" stdDeviation="3" flood-color="#050100" flood-opacity=".48"/>
    </filter>
    <filter id="softGlow" x="-20%" y="-20%" width="140%" height="140%">
      <feGaussianBlur stdDeviation="1.6" result="blur"/>
      <feMerge><feMergeNode in="blur"/><feMergeNode in="SourceGraphic"/></feMerge>
    </filter>
  </defs>
  <g filter="url(#shadow)">
    <path d="M24 9h33l18 18v56H24c-4 0-7-3-7-7V16c0-4 3-7 7-7z" fill="url(#tile)" stroke="#FF6B6B" stroke-width="2.5" stroke-linejoin="round"/>
    <path d="M57 9v18h18" fill="#321500" stroke="#FF6B6B" stroke-width="2.5" stroke-linejoin="round"/>
    <path d="M26 17h20" stroke="#FFF0DB" stroke-width="3" stroke-linecap="round" opacity=".38"/>
    <path d="M24 77h42" stroke="#FF6B6B" stroke-width="3.5" stroke-linecap="round" opacity=".9"/>
    <path d="M32 27h24l10 10v32H32z" fill="#FFD2A6" stroke="#4D2600" stroke-width="3" stroke-linejoin="round"/>
    <path d="M56 27v11h10" fill="#4D2600"/>
    <text x="49" y="58" text-anchor="middle" font-family="Inter, Arial, sans-serif" font-size="15" font-weight="950" fill="#4D2600">PDF</text>
  </g>
</svg>
