<svg xmlns="http://www.w3.org/2000/svg" width="96" height="96" viewBox="0 0 96 96" role="img" aria-label="Gas Plasma PL language icon">
  <defs>
    <linearGradient id="tile" x1="14" y1="10" x2="82" y2="86" gradientUnits="userSpaceOnUse">
      <stop offset="0" stop-color="#2A1200"/>
      <stop offset=".48" stop-color="#160700"/>
      <stop offset="1" stop-color="#080200"/>
    </linearGradient>
    <linearGradient id="ember" x1="20" y1="15" x2="76" y2="83" gradientUnits="userSpaceOnUse">
      <stop offset="0" stop-color="#FFD2A6"/>
      <stop offset=".28" stop-color="#FFD700"/>
      <stop offset=".72" stop-color="#FF8C00"/>
      <stop offset="1" stop-color="#FF4500"/>
    </linearGradient>
    <linearGradient id="panel" x1="24" y1="24" x2="72" y2="72" gradientUnits="userSpaceOnUse">
      <stop offset="0" stop-color="#2A1200"/>
      <stop offset=".6" stop-color="#100600"/>
      <stop offset="1" stop-color="#050100"/>
    </linearGradient>
    <linearGradient id="darkGlass" x1="24" y1="22" x2="72" y2="72" gradientUnits="userSpaceOnUse">
      <stop offset="0" stop-color="#2A1200"/>
      <stop offset=".58" stop-color="#100600"/>
      <stop offset="1" stop-color="#050100"/>
    </linearGradient>
    <radialGradient id="disc" cx="39%" cy="31%" r="68%">
      <stop offset="0" stop-color="#FFF0DB"/>
      <stop offset=".28" stop-color="#E8C547"/>
      <stop offset=".56" stop-color="#FF9B7A"/>
      <stop offset="1" stop-color="#4D2600"/>
    </radialGradient>
    <filter id="shadow" x="-20%" y="-20%" width="140%" height="150%">
      <feDropShadow dx="0" dy="4" stdDeviation="3" flood-color="#050100" flood-opacity=".48"/>
    </filter>
    <filter id="softGlow" x="-20%" y="-20%" width="140%" height="140%">
      <feGaussianBlur stdDeviation="1.6" result="blur"/>
      <feMerge><feMergeNode in="blur"/><feMergeNode in="SourceGraphic"/></feMerge>
    </filter>
  </defs>
  <g filter="url(#shadow)">
    <path d="M12 0A12 12 0 0 0 0 12a12 12 0 0 0 12 12 12 12 0 0 0 12-12A12 12 0 0 0 12 0m.157 1.103a10.91 10.91 0 0 1 9.214 5.404c-1.962.152-3.156 1.698-5.132 3.553-2.81 2.637-4.562.582-5.288-.898-.447-1.004-.847-2.117-1.544-2.769A.4.4 0 0 1 9.3 6.02l.08-.37a.083.083 0 0 0-.074-.1c-.33-.022-.601.093-.84.368a2.5 2.5 0 0 0-.375-.064c-.863-.093-1.036.345-1.873.345H5.81c-.758 0-1.391.361-1.7.892-.248.424-.257.884.15.93-.126.445.292.62 1.224.192 0 0 .733.421 1.749.421.549 0 .712.087.914.967.486 2.138 2.404 5.655 6.282 5.655l.118.166c.659.934.86 2.113.48 3.184-.307.867-.697 1.531-.697 1.531q.01.178.01.349c0 .81-.175 1.553-.387 2.23a10.91 10.91 0 0 1-11.989-6.342A10.91 10.91 0 0 1 7.608 2.01a10.9 10.9 0 0 1 4.55-.907M7.524 6.47c.288 0 .575.231.477.272a.4.4 0 0 1-.1.02.38.38 0 0 1-.375.327.384.384 0 0 1-.378-.326.4.4 0 0 1-.101-.02c-.098-.042.19-.273.477-.273m10.193 10.49q.05 0 .101.007.326.054.694.096.135.01.269.026a13.4 13.4 0 0 0 2.846-.007 10.9 10.9 0 0 1-2.007 2.705c-.11-.23-.547-1.19-.573-2.196q-.156-.01-.313-.026-.13-.014-.256-.022a18 18 0 0 1-.735-.102h-.003c-.032 0-.06.01-.074.035l-.003.012q-.081.265-.182.544c.428 1.084.652 2.078.652 2.078.14.22.258.432.363.64a11 11 0 0 1-2.168 1.264 11 11 0 0 1-1.205.426 13.3 13.3 0 0 1 1.055-2.531s.678-1.445 1.027-2.564v-.004a.55.55 0 0 1 .512-.38" transform="translate(12.00 12.00) scale(3)" fill="#0073A1" stroke="#080200" stroke-width="0.52" paint-order="stroke fill" stroke-linejoin="round"/>
  </g>
</svg>
