<svg xmlns="http://www.w3.org/2000/svg" width="96" height="96" viewBox="0 0 96 96" role="img" aria-label="Gas Plasma R language icon">
  <defs>
    <linearGradient id="tile" x1="14" y1="10" x2="82" y2="86" gradientUnits="userSpaceOnUse">
      <stop offset="0" stop-color="#2A1200"/>
      <stop offset=".48" stop-color="#160700"/>
      <stop offset="1" stop-color="#080200"/>
    </linearGradient>
    <linearGradient id="ember" x1="20" y1="15" x2="76" y2="83" gradientUnits="userSpaceOnUse">
      <stop offset="0" stop-color="#FFD2A6"/>
      <stop offset=".28" stop-color="#FFD700"/>
      <stop offset=".72" stop-color="#FF8C00"/>
      <stop offset="1" stop-color="#FF4500"/>
    </linearGradient>
    <linearGradient id="panel" x1="24" y1="24" x2="72" y2="72" gradientUnits="userSpaceOnUse">
      <stop offset="0" stop-color="#2A1200"/>
      <stop offset=".6" stop-color="#100600"/>
      <stop offset="1" stop-color="#050100"/>
    </linearGradient>
    <linearGradient id="darkGlass" x1="24" y1="22" x2="72" y2="72" gradientUnits="userSpaceOnUse">
      <stop offset="0" stop-color="#2A1200"/>
      <stop offset=".58" stop-color="#100600"/>
      <stop offset="1" stop-color="#050100"/>
    </linearGradient>
    <radialGradient id="disc" cx="39%" cy="31%" r="68%">
      <stop offset="0" stop-color="#FFF0DB"/>
      <stop offset=".28" stop-color="#E8C547"/>
      <stop offset=".56" stop-color="#FF9B7A"/>
      <stop offset="1" stop-color="#4D2600"/>
    </radialGradient>
    <filter id="shadow" x="-20%" y="-20%" width="140%" height="150%">
      <feDropShadow dx="0" dy="4" stdDeviation="3" flood-color="#050100" flood-opacity=".48"/>
    </filter>
    <filter id="softGlow" x="-20%" y="-20%" width="140%" height="140%">
      <feGaussianBlur stdDeviation="1.6" result="blur"/>
      <feMerge><feMergeNode in="blur"/><feMergeNode in="SourceGraphic"/></feMerge>
    </filter>
  </defs>
  <g filter="url(#shadow)">
    <path d="M12 2.746c-6.627 0-12 3.599-12 8.037 0 3.897 4.144 7.144 9.64 7.88V16.26c-2.924-.915-4.925-2.755-4.925-4.877 0-3.035 4.084-5.494 9.12-5.494 5.038 0 8.757 1.683 8.757 5.494 0 1.976-.999 3.379-2.662 4.272.09.066.174.128.258.216.169.149.25.363.372.544 2.128-1.45 3.44-3.437 3.44-5.631 0-4.44-5.373-8.038-12-8.038zm-2.111 4.99v13.516l4.093-.002-.002-5.291h1.1c.225 0 .321.066.549.25.272.22.715.982.715.982l2.164 4.063 4.627-.002-2.864-4.826s-.086-.193-.265-.383a2.22 2.22 0 00-.582-.416c-.422-.214-1.149-.434-1.149-.434s3.578-.264 3.578-3.826c0-3.562-3.744-3.63-3.744-3.63zm4.127 2.93l2.478.002s1.149-.062 1.149 1.127c0 1.165-1.149 1.17-1.149 1.17h-2.478zm1.754 6.119c-.494.049-1.012.079-1.54.088v1.807a16.622 16.622 0 002.37-.473l-.471-.891s-.108-.183-.248-.394c-.039-.054-.08-.098-.111-.137z" transform="translate(12.00 12.00) scale(3)" fill="#276DC3" stroke="#080200" stroke-width="0.52" paint-order="stroke fill" stroke-linejoin="round"/>
  </g>
</svg>
