<svg xmlns="http://www.w3.org/2000/svg" width="96" height="96" viewBox="0 0 96 96" role="img" aria-label="Gas Plasma SQL language icon">
  <defs>
    <linearGradient id="tile" x1="14" y1="10" x2="82" y2="86" gradientUnits="userSpaceOnUse">
      <stop offset="0" stop-color="#2A1200"/>
      <stop offset=".48" stop-color="#160700"/>
      <stop offset="1" stop-color="#080200"/>
    </linearGradient>
    <linearGradient id="ember" x1="20" y1="15" x2="76" y2="83" gradientUnits="userSpaceOnUse">
      <stop offset="0" stop-color="#FFD2A6"/>
      <stop offset=".28" stop-color="#FFD700"/>
      <stop offset=".72" stop-color="#FF8C00"/>
      <stop offset="1" stop-color="#FF4500"/>
    </linearGradient>
    <linearGradient id="panel" x1="24" y1="24" x2="72" y2="72" gradientUnits="userSpaceOnUse">
      <stop offset="0" stop-color="#2A1200"/>
      <stop offset=".6" stop-color="#100600"/>
      <stop offset="1" stop-color="#050100"/>
    </linearGradient>
    <linearGradient id="darkGlass" x1="24" y1="22" x2="72" y2="72" gradientUnits="userSpaceOnUse">
      <stop offset="0" stop-color="#2A1200"/>
      <stop offset=".58" stop-color="#100600"/>
      <stop offset="1" stop-color="#050100"/>
    </linearGradient>
    <radialGradient id="disc" cx="39%" cy="31%" r="68%">
      <stop offset="0" stop-color="#FFF0DB"/>
      <stop offset=".28" stop-color="#E8C547"/>
      <stop offset=".56" stop-color="#FF9B7A"/>
      <stop offset="1" stop-color="#4D2600"/>
    </radialGradient>
    <filter id="shadow" x="-20%" y="-20%" width="140%" height="150%">
      <feDropShadow dx="0" dy="4" stdDeviation="3" flood-color="#050100" flood-opacity=".48"/>
    </filter>
    <filter id="softGlow" x="-20%" y="-20%" width="140%" height="140%">
      <feGaussianBlur stdDeviation="1.6" result="blur"/>
      <feMerge><feMergeNode in="blur"/><feMergeNode in="SourceGraphic"/></feMerge>
    </filter>
  </defs>
  <g filter="url(#shadow)">
    <path d="M21.678.521c-1.032-.92-2.28-.55-3.513.544a8.71 8.71 0 0 0-.547.535c-2.109 2.237-4.066 6.38-4.674 9.544.237.48.422 1.093.544 1.561a13.044 13.044 0 0 1 .164.703s-.019-.071-.096-.296l-.05-.146a1.689 1.689 0 0 0-.033-.08c-.138-.32-.518-.995-.686-1.289-.143.423-.27.818-.376 1.176.484.884.778 2.4.778 2.4s-.025-.099-.147-.442c-.107-.303-.644-1.244-.772-1.464-.217.804-.304 1.346-.226 1.478.152.256.296.698.422 1.186.286 1.1.485 2.44.485 2.44l.017.224a22.41 22.41 0 0 0 .056 2.748c.095 1.146.273 2.13.5 2.657l.155-.084c-.334-1.038-.47-2.399-.41-3.967.09-2.398.642-5.29 1.661-8.304 1.723-4.55 4.113-8.201 6.3-9.945-1.993 1.8-4.692 7.63-5.5 9.788-.904 2.416-1.545 4.684-1.931 6.857.666-2.037 2.821-2.912 2.821-2.912s1.057-1.304 2.292-3.166c-.74.169-1.955.458-2.362.629-.6.251-.762.337-.762.337s1.945-1.184 3.613-1.72C21.695 7.9 24.195 2.767 21.678.521m-18.573.543A1.842 1.842 0 0 0 1.27 2.9v16.608a1.84 1.84 0 0 0 1.835 1.834h9.418a22.953 22.953 0 0 1-.052-2.707c-.006-.062-.011-.141-.016-.2a27.01 27.01 0 0 0-.473-2.378c-.121-.47-.275-.898-.369-1.057-.116-.197-.098-.31-.097-.432 0-.12.015-.245.037-.386a9.98 9.98 0 0 1 .234-1.045l.217-.028c-.017-.035-.014-.065-.031-.097l-.041-.381a32.8 32.8 0 0 1 .382-1.194l.2-.019c-.008-.016-.01-.038-.018-.053l-.043-.316c.63-3.28 2.587-7.443 4.8-9.791.066-.069.133-.128.198-.194Z" transform="translate(12.00 12.00) scale(3)" fill="#003B57" stroke="#080200" stroke-width="0.52" paint-order="stroke fill" stroke-linejoin="round"/>
  </g>
</svg>
