<svg xmlns="http://www.w3.org/2000/svg" width="96" height="96" viewBox="0 0 96 96" role="img" aria-label="Gas Plasma ZIG language icon">
  <defs>
    <linearGradient id="tile" x1="14" y1="10" x2="82" y2="86" gradientUnits="userSpaceOnUse">
      <stop offset="0" stop-color="#2A1200"/>
      <stop offset=".48" stop-color="#160700"/>
      <stop offset="1" stop-color="#080200"/>
    </linearGradient>
    <linearGradient id="ember" x1="20" y1="15" x2="76" y2="83" gradientUnits="userSpaceOnUse">
      <stop offset="0" stop-color="#FFD2A6"/>
      <stop offset=".28" stop-color="#FFD700"/>
      <stop offset=".72" stop-color="#FF8C00"/>
      <stop offset="1" stop-color="#FF4500"/>
    </linearGradient>
    <linearGradient id="panel" x1="24" y1="24" x2="72" y2="72" gradientUnits="userSpaceOnUse">
      <stop offset="0" stop-color="#2A1200"/>
      <stop offset=".6" stop-color="#100600"/>
      <stop offset="1" stop-color="#050100"/>
    </linearGradient>
    <linearGradient id="darkGlass" x1="24" y1="22" x2="72" y2="72" gradientUnits="userSpaceOnUse">
      <stop offset="0" stop-color="#2A1200"/>
      <stop offset=".58" stop-color="#100600"/>
      <stop offset="1" stop-color="#050100"/>
    </linearGradient>
    <radialGradient id="disc" cx="39%" cy="31%" r="68%">
      <stop offset="0" stop-color="#FFF0DB"/>
      <stop offset=".28" stop-color="#E8C547"/>
      <stop offset=".56" stop-color="#FF9B7A"/>
      <stop offset="1" stop-color="#4D2600"/>
    </radialGradient>
    <filter id="shadow" x="-20%" y="-20%" width="140%" height="150%">
      <feDropShadow dx="0" dy="4" stdDeviation="3" flood-color="#050100" flood-opacity=".48"/>
    </filter>
    <filter id="softGlow" x="-20%" y="-20%" width="140%" height="140%">
      <feGaussianBlur stdDeviation="1.6" result="blur"/>
      <feMerge><feMergeNode in="blur"/><feMergeNode in="SourceGraphic"/></feMerge>
    </filter>
  </defs>
  <g filter="url(#shadow)">
    <path d="m23.53 1.02-7.686 3.45h-7.06l-2.98 3.452h7.173L.47 22.98l7.681-3.607h7.065v-.002l2.978-3.45-7.148-.001 12.482-14.9zM0 4.47v14.901h1.883l2.98-3.45H3.451v-8h.942l2.824-3.45H0zm22.117 0-2.98 3.608h1.412v7.844h-.942l-2.98 3.45H24V4.47h-1.883z" transform="translate(12.00 12.00) scale(3)" fill="#F7A41D" stroke="#080200" stroke-width="0.52" paint-order="stroke fill" stroke-linejoin="round"/>
  </g>
</svg>
