<svg xmlns="http://www.w3.org/2000/svg" width="96" height="96" viewBox="0 0 96 96" role="img" aria-label="Gas Plasma CF language icon">
  <defs>
    <linearGradient id="tile" x1="14" y1="10" x2="82" y2="86" gradientUnits="userSpaceOnUse">
      <stop offset="0" stop-color="#2A1200"/>
      <stop offset=".48" stop-color="#160700"/>
      <stop offset="1" stop-color="#080200"/>
    </linearGradient>
    <linearGradient id="ember" x1="20" y1="15" x2="76" y2="83" gradientUnits="userSpaceOnUse">
      <stop offset="0" stop-color="#FFD2A6"/>
      <stop offset=".28" stop-color="#FFD700"/>
      <stop offset=".72" stop-color="#FF8C00"/>
      <stop offset="1" stop-color="#FF4500"/>
    </linearGradient>
    <linearGradient id="panel" x1="24" y1="24" x2="72" y2="72" gradientUnits="userSpaceOnUse">
      <stop offset="0" stop-color="#2A1200"/>
      <stop offset=".6" stop-color="#100600"/>
      <stop offset="1" stop-color="#050100"/>
    </linearGradient>
    <linearGradient id="darkGlass" x1="24" y1="22" x2="72" y2="72" gradientUnits="userSpaceOnUse">
      <stop offset="0" stop-color="#2A1200"/>
      <stop offset=".58" stop-color="#100600"/>
      <stop offset="1" stop-color="#050100"/>
    </linearGradient>
    <radialGradient id="disc" cx="39%" cy="31%" r="68%">
      <stop offset="0" stop-color="#FFF0DB"/>
      <stop offset=".28" stop-color="#E8C547"/>
      <stop offset=".56" stop-color="#FF9B7A"/>
      <stop offset="1" stop-color="#4D2600"/>
    </radialGradient>
    <filter id="shadow" x="-20%" y="-20%" width="140%" height="150%">
      <feDropShadow dx="0" dy="4" stdDeviation="3" flood-color="#050100" flood-opacity=".48"/>
    </filter>
    <filter id="softGlow" x="-20%" y="-20%" width="140%" height="140%">
      <feGaussianBlur stdDeviation="1.6" result="blur"/>
      <feMerge><feMergeNode in="blur"/><feMergeNode in="SourceGraphic"/></feMerge>
    </filter>
  </defs>
  <g filter="url(#shadow)">
    <path d="M4.645 7.472c2.1.53 4.779.8 8.008.8 3.299 0 5.918-.27 8.008-.8 2.23-.52 3.299-1.22 3.299-1.88 0-.47-.48-.93-1.35-1.28.2.13.35.35.35.59 0 .67-1.01 1.22-3.039 1.68-1.88.41-4.279.7-7.198.7-2.82 0-5.329-.29-7.138-.68-1.95-.48-2.97-1-2.97-1.68 0-.28.13-.52.52-.8-1.22.47-1.88.87-1.88 1.47.07.68 1.16 1.36 3.39 1.88zm4.689-2.16c2.27-.2 2.929-1.659 5.588-1.899 1.31-.1 2.14.16 2.23.62.08.43-.57.72-1.36.78-1.09.11-1.54-.28-1.63-.65-.81.09-.94.43-.9.67.09.46 1.07.92 2.75.76 1.9-.15 2.54-.9 2.38-1.65-.2-.98-1.66-1.8-4.28-1.55-3.359.3-3.339 1.86-5.628 2.05-.94.09-1.46-.13-1.55-.5-.06-.37.4-.55.94-.59.5-.05 1.11.04 1.4.2.21-.11.28-.22.26-.35-.1-.35-.79-.5-1.66-.44-1.7.15-1.7.91-1.64 1.25.17.87 1.48 1.45 3.1 1.3zm11.417 3.84c-2.1.49-4.779.809-8.008.809-3.3 0-5.989-.34-8.078-.8-1.88-.48-2.88-1.01-3.23-1.56.18 1.23.49 2.42.89 3.55-.48.3-.91.67-1.3 1.17a4.519 4.519 0 00-1.019 3.098 3.6 3.599 0 001.42 2.62c.87.68 1.81.88 2.879.68.41-.07.87-.28 1.29-.42-.88 0-1.62-.28-2.36-.87a3.55 3.549 0 01-1.49-2.42c-.2-.94 0-1.81.53-2.579.12-.15.25-.28.39-.4.3.73.62 1.45.98 2.12.81 1.23 1.62 2.299 2.43 3.459.35.68.58 1.35.74 2.019a3.899 3.899 0 002.229 1.5c1.15.4 2.35.58 3.579.51h.13a10.197 10.197 0 003.689-.52 4.179 4.179 0 002.16-1.49h.07c.13-.67.35-1.34.67-2.02.799-1.17 1.619-2.229 2.419-3.458A20.995 20.993 0 0024 7.612c-.43.6-1.44 1.13-3.25 1.54z" transform="translate(12.00 12.00) scale(3)" fill="#2F2625" stroke="#080200" stroke-width="0.52" paint-order="stroke fill" stroke-linejoin="round"/>
  </g>
</svg>
