<svg xmlns="http://www.w3.org/2000/svg" width="96" height="96" viewBox="0 0 96 96" role="img" aria-label="Gas Plasma CSS language icon">
  <defs>
    <linearGradient id="tile" x1="14" y1="10" x2="82" y2="86" gradientUnits="userSpaceOnUse">
      <stop offset="0" stop-color="#2A1200"/>
      <stop offset=".48" stop-color="#160700"/>
      <stop offset="1" stop-color="#080200"/>
    </linearGradient>
    <linearGradient id="ember" x1="20" y1="15" x2="76" y2="83" gradientUnits="userSpaceOnUse">
      <stop offset="0" stop-color="#FFD2A6"/>
      <stop offset=".28" stop-color="#FFD700"/>
      <stop offset=".72" stop-color="#FF8C00"/>
      <stop offset="1" stop-color="#FF4500"/>
    </linearGradient>
    <linearGradient id="panel" x1="24" y1="24" x2="72" y2="72" gradientUnits="userSpaceOnUse">
      <stop offset="0" stop-color="#2A1200"/>
      <stop offset=".6" stop-color="#100600"/>
      <stop offset="1" stop-color="#050100"/>
    </linearGradient>
    <linearGradient id="darkGlass" x1="24" y1="22" x2="72" y2="72" gradientUnits="userSpaceOnUse">
      <stop offset="0" stop-color="#2A1200"/>
      <stop offset=".58" stop-color="#100600"/>
      <stop offset="1" stop-color="#050100"/>
    </linearGradient>
    <radialGradient id="disc" cx="39%" cy="31%" r="68%">
      <stop offset="0" stop-color="#FFF0DB"/>
      <stop offset=".28" stop-color="#E8C547"/>
      <stop offset=".56" stop-color="#FF9B7A"/>
      <stop offset="1" stop-color="#4D2600"/>
    </radialGradient>
    <filter id="shadow" x="-20%" y="-20%" width="140%" height="150%">
      <feDropShadow dx="0" dy="4" stdDeviation="3" flood-color="#050100" flood-opacity=".48"/>
    </filter>
    <filter id="softGlow" x="-20%" y="-20%" width="140%" height="140%">
      <feGaussianBlur stdDeviation="1.6" result="blur"/>
      <feMerge><feMergeNode in="blur"/><feMergeNode in="SourceGraphic"/></feMerge>
    </filter>
  </defs>
  <g filter="url(#shadow)">
    <path d="M0 0v20.16A3.84 3.84 0 0 0 3.84 24h16.32A3.84 3.84 0 0 0 24 20.16V3.84A3.84 3.84 0 0 0 20.16 0Zm14.256 13.08c1.56 0 2.28 1.08 2.304 2.64h-1.608c.024-.288-.048-.6-.144-.84-.096-.192-.288-.264-.552-.264-.456 0-.696.264-.696.84-.024.576.288.888.768 1.08.72.288 1.608.744 1.92 1.296q.432.648.432 1.656c0 1.608-.912 2.592-2.496 2.592-1.656 0-2.4-1.032-2.424-2.688h1.68c0 .792.264 1.176.792 1.176.264 0 .456-.072.552-.24.192-.312.24-1.176-.048-1.512-.312-.408-.912-.6-1.32-.816q-.828-.396-1.224-.936c-.24-.36-.36-.888-.36-1.536 0-1.44.936-2.472 2.424-2.448m5.4 0c1.584 0 2.304 1.08 2.328 2.64h-1.608c0-.288-.048-.6-.168-.84-.096-.192-.264-.264-.528-.264-.48 0-.72.264-.72.84s.288.888.792 1.08c.696.288 1.608.744 1.92 1.296.264.432.408.984.408 1.656.024 1.608-.888 2.592-2.472 2.592-1.68 0-2.424-1.056-2.448-2.688h1.68c0 .744.264 1.176.792 1.176.264 0 .456-.072.552-.24.216-.312.264-1.176-.048-1.512-.288-.408-.888-.6-1.32-.816-.552-.264-.96-.576-1.2-.936s-.36-.888-.36-1.536c-.024-1.44.912-2.472 2.4-2.448m-11.031.018c.711-.006 1.419.198 1.839.63.432.432.672 1.128.648 1.992H9.336c.024-.456-.096-.792-.432-.96-.312-.144-.768-.048-.888.24-.12.264-.192.576-.168.864v3.504c0 .744.264 1.128.768 1.128a.65.65 0 0 0 .552-.264c.168-.24.192-.552.168-.84h1.776c.096 1.632-.984 2.712-2.568 2.688-1.536 0-2.496-.864-2.472-2.472v-4.032c0-.816.24-1.44.696-1.848.432-.408 1.146-.624 1.857-.63" transform="translate(12.00 12.00) scale(3)" fill="#1572B6" stroke="#080200" stroke-width="0.52" paint-order="stroke fill" stroke-linejoin="round"/>
  </g>
</svg>
