<svg xmlns="http://www.w3.org/2000/svg" width="96" height="96" viewBox="0 0 96 96" role="img" aria-label="Gas Plasma GDS language icon">
  <defs>
    <linearGradient id="tile" x1="14" y1="10" x2="82" y2="86" gradientUnits="userSpaceOnUse">
      <stop offset="0" stop-color="#2A1200"/>
      <stop offset=".48" stop-color="#160700"/>
      <stop offset="1" stop-color="#080200"/>
    </linearGradient>
    <linearGradient id="ember" x1="20" y1="15" x2="76" y2="83" gradientUnits="userSpaceOnUse">
      <stop offset="0" stop-color="#FFD2A6"/>
      <stop offset=".28" stop-color="#FFD700"/>
      <stop offset=".72" stop-color="#FF8C00"/>
      <stop offset="1" stop-color="#FF4500"/>
    </linearGradient>
    <linearGradient id="panel" x1="24" y1="24" x2="72" y2="72" gradientUnits="userSpaceOnUse">
      <stop offset="0" stop-color="#2A1200"/>
      <stop offset=".6" stop-color="#100600"/>
      <stop offset="1" stop-color="#050100"/>
    </linearGradient>
    <linearGradient id="darkGlass" x1="24" y1="22" x2="72" y2="72" gradientUnits="userSpaceOnUse">
      <stop offset="0" stop-color="#2A1200"/>
      <stop offset=".58" stop-color="#100600"/>
      <stop offset="1" stop-color="#050100"/>
    </linearGradient>
    <radialGradient id="disc" cx="39%" cy="31%" r="68%">
      <stop offset="0" stop-color="#FFF0DB"/>
      <stop offset=".28" stop-color="#E8C547"/>
      <stop offset=".56" stop-color="#FF9B7A"/>
      <stop offset="1" stop-color="#4D2600"/>
    </radialGradient>
    <filter id="shadow" x="-20%" y="-20%" width="140%" height="150%">
      <feDropShadow dx="0" dy="4" stdDeviation="3" flood-color="#050100" flood-opacity=".48"/>
    </filter>
    <filter id="softGlow" x="-20%" y="-20%" width="140%" height="140%">
      <feGaussianBlur stdDeviation="1.6" result="blur"/>
      <feMerge><feMergeNode in="blur"/><feMergeNode in="SourceGraphic"/></feMerge>
    </filter>
  </defs>
  <g filter="url(#shadow)">
    <path d="M9.5598.683c-1.096.244-2.1812.5831-3.1983 1.0951.023.8981.081 1.7582.199 2.6323-.395.253-.81.47-1.178.766-.375.288-.7581.564-1.0971.9011-.6781-.448-1.3962-.869-2.1352-1.2411C1.3532 5.6934.608 6.6186 0 7.6546c.458.7411.936 1.4352 1.4521 2.0942h.014v6.3565c.012 0 .023 0 .035.003l3.8963.376c.204.02.364.184.378.3891l.12 1.7201 3.3994.242.234-1.587c.03-.206.207-.358.415-.358h4.1114c.208 0 .385.152.415.358l.234 1.587 3.3993-.242.12-1.72a.4196.4196 0 01.378-.3891l3.8954-.376c.012 0 .023-.003.035-.003v-.5071h.002V9.7498h.014c.516-.659.994-1.3531 1.4521-2.0942-.608-1.036-1.3541-1.9611-2.1512-2.8192-.739.372-1.4571.793-2.1352 1.2411-.339-.337-.721-.613-1.096-.901-.369-.296-.7841-.5131-1.1781-.7661.117-.8741.175-1.7342.199-2.6323-1.0171-.512-2.1012-.851-3.1983-1.095-.438.736-.838 1.533-1.1871 2.3121-.414-.069-.829-.094-1.2461-.099h-.016c-.417.005-.832.03-1.2461.099-.349-.779-.749-1.576-1.1881-2.3121l.001-.001zM6.4765 9.9889c1.2971 0 2.3492 1.0511 2.3492 2.3482s-1.052 2.3482-2.3492 2.3482c-1.296 0-2.3482-1.051-2.3482-2.3482 0-1.297 1.0511-2.3482 2.3482-2.3482zm11.049 0c1.296 0 2.3482 1.0511 2.3482 2.3482s-1.0511 2.3482-2.3482 2.3482-2.3492-1.051-2.3492-2.3482c0-1.297 1.051-2.3482 2.3492-2.3482zm-10.824.9301c-.861 0-1.559.698-1.559 1.5591s.698 1.5582 1.559 1.5582c.8611 0 1.5592-.698 1.5592-1.5582 0-.86-.697-1.559-1.5591-1.559zm10.598 0c-.8611 0-1.5582.698-1.5582 1.5591s.697 1.5582 1.5581 1.5582c.8611 0 1.5592-.698 1.5592-1.5582 0-.86-.697-1.559-1.5592-1.559zm-5.2985.453c.417 0 .757.308.757.6871v2.1622c0 .379-.339.687-.757.687s-.756-.308-.756-.687V12.059c0-.379.339-.687.756-.687zM1.4601 16.9464c.002.377.006.789.006.871 0 3.7014 4.6944 5.4795 10.5269 5.5005h.014c5.8325-.02 10.5259-1.7991 10.5259-5.5004 0-.084.005-.495.007-.871l-3.5023.338-.121 1.729a.421.421 0 01-.389.3901l-4.1814.296a.4203.4203 0 01-.415-.358l-.238-1.6141h-3.3863l-.238 1.6141a.4192.4192 0 01-.4451.357l-4.1513-.296c-.208-.015-.375-.181-.389-.389l-.12-1.7292-3.5044-.337z" transform="translate(12.00 12.00) scale(3)" fill="#478CBF" stroke="#080200" stroke-width="0.52" paint-order="stroke fill" stroke-linejoin="round"/>
  </g>
</svg>
