<svg xmlns="http://www.w3.org/2000/svg" width="96" height="96" viewBox="0 0 96 96" role="img" aria-label="Gas Plasma VALA language icon">
  <defs>
    <linearGradient id="tile" x1="14" y1="10" x2="82" y2="86" gradientUnits="userSpaceOnUse">
      <stop offset="0" stop-color="#2A1200"/>
      <stop offset=".48" stop-color="#160700"/>
      <stop offset="1" stop-color="#080200"/>
    </linearGradient>
    <linearGradient id="ember" x1="20" y1="15" x2="76" y2="83" gradientUnits="userSpaceOnUse">
      <stop offset="0" stop-color="#FFD2A6"/>
      <stop offset=".28" stop-color="#FFD700"/>
      <stop offset=".72" stop-color="#FF8C00"/>
      <stop offset="1" stop-color="#FF4500"/>
    </linearGradient>
    <linearGradient id="panel" x1="24" y1="24" x2="72" y2="72" gradientUnits="userSpaceOnUse">
      <stop offset="0" stop-color="#2A1200"/>
      <stop offset=".6" stop-color="#100600"/>
      <stop offset="1" stop-color="#050100"/>
    </linearGradient>
    <linearGradient id="darkGlass" x1="24" y1="22" x2="72" y2="72" gradientUnits="userSpaceOnUse">
      <stop offset="0" stop-color="#2A1200"/>
      <stop offset=".58" stop-color="#100600"/>
      <stop offset="1" stop-color="#050100"/>
    </linearGradient>
    <radialGradient id="disc" cx="39%" cy="31%" r="68%">
      <stop offset="0" stop-color="#FFF0DB"/>
      <stop offset=".28" stop-color="#E8C547"/>
      <stop offset=".56" stop-color="#FF9B7A"/>
      <stop offset="1" stop-color="#4D2600"/>
    </radialGradient>
    <filter id="shadow" x="-20%" y="-20%" width="140%" height="150%">
      <feDropShadow dx="0" dy="4" stdDeviation="3" flood-color="#050100" flood-opacity=".48"/>
    </filter>
    <filter id="softGlow" x="-20%" y="-20%" width="140%" height="140%">
      <feGaussianBlur stdDeviation="1.6" result="blur"/>
      <feMerge><feMergeNode in="blur"/><feMergeNode in="SourceGraphic"/></feMerge>
    </filter>
  </defs>
  <g filter="url(#shadow)">
    <path d="m9.3836 23.9993-.5152-21.859q-2.2504.8435-3.5153 2.64-1.2509 1.7971-1.2509 4.4689 0 .6092.0629 1.0002.0776.3748.156.6092.0783.2188.1411.3438.0777.1249.0777.2188-.828 0-1.4682-.156-.641-.1723-1.0786-.5316-.4222-.3585-.6565-.9529-.2188-.593-.2188-1.4682 0-1.0624.4524-2.0937.4687-1.0306 1.2657-1.9532.8125-.9211 1.891-1.7025 1.0942-.7815 2.328-1.344Q8.3044.6409 9.6484.3289 11.0079 0 12.3519 0q.3593 0 .6565.0155.312.0156.624.0466l.2816 19.687L20.6481.1554h2.2341L13.9924 24H9.3829Z" transform="translate(12.00 12.00) scale(3)" fill="#7239B3" stroke="#080200" stroke-width="0.52" paint-order="stroke fill" stroke-linejoin="round"/>
  </g>
</svg>
