<svg xmlns="http://www.w3.org/2000/svg" width="96" height="96" viewBox="0 0 96 96" role="img" aria-label="Gas Plasma JSON icon">
  <defs>
    <linearGradient id="tile" x1="14" y1="10" x2="82" y2="86" gradientUnits="userSpaceOnUse">
      <stop offset="0" stop-color="#2A1200"/>
      <stop offset=".48" stop-color="#160700"/>
      <stop offset="1" stop-color="#080200"/>
    </linearGradient>
    <linearGradient id="ember" x1="20" y1="15" x2="76" y2="83" gradientUnits="userSpaceOnUse">
      <stop offset="0" stop-color="#FFD2A6"/>
      <stop offset=".28" stop-color="#FFD700"/>
      <stop offset=".72" stop-color="#FF8C00"/>
      <stop offset="1" stop-color="#FF4500"/>
    </linearGradient>
    <linearGradient id="panel" x1="24" y1="24" x2="72" y2="72" gradientUnits="userSpaceOnUse">
      <stop offset="0" stop-color="#2A1200"/>
      <stop offset=".6" stop-color="#100600"/>
      <stop offset="1" stop-color="#050100"/>
    </linearGradient>
    <linearGradient id="darkGlass" x1="24" y1="22" x2="72" y2="72" gradientUnits="userSpaceOnUse">
      <stop offset="0" stop-color="#2A1200"/>
      <stop offset=".58" stop-color="#100600"/>
      <stop offset="1" stop-color="#050100"/>
    </linearGradient>
    <radialGradient id="disc" cx="39%" cy="31%" r="68%">
      <stop offset="0" stop-color="#FFF0DB"/>
      <stop offset=".28" stop-color="#E8C547"/>
      <stop offset=".56" stop-color="#FF9B7A"/>
      <stop offset="1" stop-color="#4D2600"/>
    </radialGradient>
    <filter id="shadow" x="-20%" y="-20%" width="140%" height="150%">
      <feDropShadow dx="0" dy="4" stdDeviation="3" flood-color="#050100" flood-opacity=".48"/>
    </filter>
    <filter id="softGlow" x="-20%" y="-20%" width="140%" height="140%">
      <feGaussianBlur stdDeviation="1.6" result="blur"/>
      <feMerge><feMergeNode in="blur"/><feMergeNode in="SourceGraphic"/></feMerge>
    </filter>
  </defs>
  <g filter="url(#shadow)">
    <path d="M12.043 23.968c.479-.004.953-.029 1.426-.094a11.805 11.805 0 003.146-.863 12.404 12.404 0 003.793-2.542 11.977 11.977 0 002.44-3.427 11.794 11.794 0 001.02-3.476c.149-1.16.135-2.346-.045-3.499a11.96 11.96 0 00-.793-2.788 11.197 11.197 0 00-.854-1.617c-1.168-1.837-2.861-3.314-4.81-4.3a12.835 12.835 0 00-2.172-.87h-.005c.119.063.24.132.345.201.12.074.239.146.351.225a8.93 8.93 0 011.559 1.33c1.063 1.145 1.797 2.548 2.218 4.041.284.982.434 1.998.495 3.017.044.743.044 1.491-.047 2.229-.149 1.27-.554 2.51-1.228 3.596a7.475 7.475 0 01-1.903 2.084c-1.244.928-2.877 1.482-4.436 1.114a3.916 3.916 0 01-.748-.258 4.692 4.692 0 01-.779-.45 6.08 6.08 0 01-1.244-1.105 6.507 6.507 0 01-1.049-1.747 7.366 7.366 0 01-.494-2.54c-.03-1.273.225-2.553.854-3.67a6.43 6.43 0 011.663-1.918c.225-.178.464-.333.704-.479l.016-.007a5.121 5.121 0 00-1.441-.12 4.963 4.963 0 00-1.228.24c-.359.12-.704.27-1.019.45a6.146 6.146 0 00-.733.494c-.211.18-.42.36-.615.555-1.123 1.153-1.768 2.682-2.022 4.256-.15.973-.15 1.96-.091 2.95.105 1.395.391 2.787.945 4.062a8.518 8.518 0 001.348 2.173 8.14 8.14 0 003.132 2.23 7.934 7.934 0 002.113.54c.074.015.149.015.209.015zm-2.934-.398a4.102 4.102 0 01-.45-.228 8.5 8.5 0 01-2.038-1.534c-1.094-1.137-1.827-2.566-2.247-4.08a15.184 15.184 0 01-.495-3.172 12.14 12.14 0 01.046-2.082c.135-1.257.495-2.501 1.124-3.58a6.889 6.889 0 011.783-2.053 6.23 6.23 0 011.633-.9 5.363 5.363 0 013.522-.045c.029 0 .029 0 .045.03.015.015.045.015.06.03.045.016.104.045.165.074.239.12.479.271.704.42a6.294 6.294 0 012.097 2.502c.42.914.615 1.934.631 2.938.014 1.079-.18 2.157-.645 3.146a6.42 6.42 0 01-2.638 2.832c.09.03.18.045.271.075.225.044.449.074.688.074 1.468.045 2.892-.66 3.94-1.647.195-.18.375-.375.54-.585.225-.27.435-.54.614-.823.239-.375.435-.75.614-1.154a8.112 8.112 0 00.509-1.664c.196-1.004.211-2.022.149-3.026-.135-2.022-.673-4.045-1.842-5.724a9.054 9.054 0 00-.555-.719 9.868 9.868 0 00-1.063-1.034 8.477 8.477 0 00-1.363-.915 9.927 9.927 0 00-1.692-.598l-.3-.06c-.209-.03-.42-.044-.634-.06a8.453 8.453 0 00-1.015.016c-.704.045-1.412.16-2.112.337C5.799 1.227 2.863 3.566 1.3 6.67A11.834 11.834 0 00.238 9.801a11.81 11.81 0 00-.104 3.775c.12 1.02.374 2.023.778 2.977.227.57.511 1.124.825 1.648 1.094 1.783 2.683 3.236 4.51 4.24.688.39 1.408.69 2.157.944.226.074.45.15.689.21z" transform="translate(12.00 12.00) scale(3)" fill="#FFD700" stroke="#080200" stroke-width="0.52" paint-order="stroke fill" stroke-linejoin="round"/>
  </g>
</svg>
