<svg xmlns="http://www.w3.org/2000/svg" width="96" height="96" viewBox="0 0 96 96" role="img" aria-label="Gas Plasma NIX language icon">
  <defs>
    <linearGradient id="tile" x1="14" y1="10" x2="82" y2="86" gradientUnits="userSpaceOnUse">
      <stop offset="0" stop-color="#2A1200"/>
      <stop offset=".48" stop-color="#160700"/>
      <stop offset="1" stop-color="#080200"/>
    </linearGradient>
    <linearGradient id="ember" x1="20" y1="15" x2="76" y2="83" gradientUnits="userSpaceOnUse">
      <stop offset="0" stop-color="#FFD2A6"/>
      <stop offset=".28" stop-color="#FFD700"/>
      <stop offset=".72" stop-color="#FF8C00"/>
      <stop offset="1" stop-color="#FF4500"/>
    </linearGradient>
    <linearGradient id="panel" x1="24" y1="24" x2="72" y2="72" gradientUnits="userSpaceOnUse">
      <stop offset="0" stop-color="#2A1200"/>
      <stop offset=".6" stop-color="#100600"/>
      <stop offset="1" stop-color="#050100"/>
    </linearGradient>
    <linearGradient id="darkGlass" x1="24" y1="22" x2="72" y2="72" gradientUnits="userSpaceOnUse">
      <stop offset="0" stop-color="#2A1200"/>
      <stop offset=".58" stop-color="#100600"/>
      <stop offset="1" stop-color="#050100"/>
    </linearGradient>
    <radialGradient id="disc" cx="39%" cy="31%" r="68%">
      <stop offset="0" stop-color="#FFF0DB"/>
      <stop offset=".28" stop-color="#E8C547"/>
      <stop offset=".56" stop-color="#FF9B7A"/>
      <stop offset="1" stop-color="#4D2600"/>
    </radialGradient>
    <filter id="shadow" x="-20%" y="-20%" width="140%" height="150%">
      <feDropShadow dx="0" dy="4" stdDeviation="3" flood-color="#050100" flood-opacity=".48"/>
    </filter>
    <filter id="softGlow" x="-20%" y="-20%" width="140%" height="140%">
      <feGaussianBlur stdDeviation="1.6" result="blur"/>
      <feMerge><feMergeNode in="blur"/><feMergeNode in="SourceGraphic"/></feMerge>
    </filter>
  </defs>
  <g filter="url(#shadow)">
    <path d="M7.352 1.592l-1.364.002L5.32 2.75l1.557 2.713-3.137-.008-1.32 2.34H14.11l-1.353-2.332-3.192-.006-2.214-3.865zm6.175 0l-2.687.025 5.846 10.127 1.341-2.34-1.59-2.765 2.24-3.85-.683-1.182h-1.336l-1.57 2.705-1.56-2.72zm6.887 4.195l-5.846 10.125 2.696-.008 1.601-2.76 4.453.016.682-1.183-.666-1.157-3.13-.008L21.778 8.1l-1.365-2.313zM9.432 8.086l-2.696.008-1.601 2.76-4.453-.016L0 12.02l.666 1.157 3.13.008-1.575 2.71 1.365 2.315L9.432 8.086zM7.33 12.25l-.006.01-.002-.004-1.342 2.34 1.59 2.765-2.24 3.85.684 1.182H7.35l.004-.006h.001l1.567-2.698 1.558 2.72 2.688-.026-.004-.006h.01L7.33 12.25zm2.55 3.93l1.354 2.332 3.192.006 2.215 3.865 1.363-.002.668-1.156-1.557-2.713 3.137.008 1.32-2.34H9.881Z" transform="translate(12.00 12.00) scale(3)" fill="#5277C3" stroke="#080200" stroke-width="0.52" paint-order="stroke fill" stroke-linejoin="round"/>
  </g>
</svg>
