<svg xmlns="http://www.w3.org/2000/svg" width="512" height="512" viewBox="0 0 512 512" role="img" aria-labelledby="title desc">
  <title id="title">Gas Plasma logo</title>
  <desc id="desc">A glowing plasma aperture around the letters GP.</desc>
  <defs>
    <linearGradient id="panel" x1="0" y1="0" x2="1" y2="1">
      <stop offset="0" stop-color="#261000"/>
      <stop offset=".58" stop-color="#1A0A00"/>
      <stop offset="1" stop-color="#080200"/>
    </linearGradient>
    <linearGradient id="ring" x1="76" y1="404" x2="434" y2="96">
      <stop offset="0" stop-color="#FF4500"/>
      <stop offset=".34" stop-color="#FFD700"/>
      <stop offset=".7" stop-color="#FF8C00"/>
      <stop offset="1" stop-color="#FF6B6B"/>
    </linearGradient>
    <filter id="glow" x="-40%" y="-40%" width="180%" height="180%">
      <feGaussianBlur stdDeviation="10" result="blur"/>
      <feMerge>
        <feMergeNode in="blur"/>
        <feMergeNode in="SourceGraphic"/>
      </feMerge>
    </filter>
    <filter id="smallGlow" x="-30%" y="-30%" width="160%" height="160%">
      <feGaussianBlur stdDeviation="4" result="blur"/>
      <feMerge><feMergeNode in="blur"/><feMergeNode in="SourceGraphic"/></feMerge>
    </filter>
  </defs>
  <rect width="512" height="512" rx="104" fill="url(#panel)"/>
  <path d="M116 361C83 295 94 218 144 164c62-68 166-79 242-25 78 56 97 163 45 240" fill="none" stroke="#4D2600" stroke-width="58" stroke-linecap="round"/>
  <path d="M116 361C83 295 94 218 144 164c62-68 166-79 242-25 78 56 97 163 45 240" fill="none" stroke="url(#ring)" stroke-width="36" stroke-linecap="round" filter="url(#glow)"/>
  <path d="M142 364c37 38 87 58 138 55 50-3 96-29 128-69" fill="none" stroke="#E8C547" stroke-width="14" stroke-linecap="round" opacity=".85" filter="url(#smallGlow)"/>
  <circle cx="252" cy="257" r="116" fill="#120600" stroke="#3A1800" stroke-width="2"/>
  <text x="256" y="303" text-anchor="middle" font-family="SF Mono, Menlo, Consolas, monospace" font-size="132" font-weight="900" letter-spacing="-8" fill="#FFD2A6">GP</text>
  <path d="M360 134l18 34 38 6-28 27 7 38-35-18-34 18 6-38-27-27 38-6z" fill="#FFD700" opacity=".95"/>
</svg>
