<svg xmlns="http://www.w3.org/2000/svg" width="1800" height="1080" viewBox="0 0 1800 1080" role="img" aria-labelledby="title desc">
  <title id="title">Gas Plasma theme mockup</title>
  <desc id="desc">A polished design mockup showing Gas Plasma in Terminal, iTerm2, and VS Code.</desc>
  <defs>
    <linearGradient id="stage" x1="0" y1="0" x2="1" y2="1">
      <stop offset="0" stop-color="#0B0300"/>
      <stop offset=".48" stop-color="#1A0A00"/>
      <stop offset="1" stop-color="#261000"/>
    </linearGradient>
    <linearGradient id="window" x1="0" y1="0" x2="0" y2="1">
      <stop offset="0" stop-color="#1E0B00"/>
      <stop offset="1" stop-color="#0F0500"/>
    </linearGradient>
    <linearGradient id="accent" x1="0" y1="0" x2="1" y2="0">
      <stop offset="0" stop-color="#FF4500"/>
      <stop offset=".5" stop-color="#FFD700"/>
      <stop offset="1" stop-color="#E8C547"/>
    </linearGradient>
    <filter id="shadow" x="-10%" y="-10%" width="120%" height="120%">
      <feDropShadow dx="0" dy="28" stdDeviation="28" flood-color="#000" flood-opacity=".55"/>
    </filter>
    <pattern id="grid" width="42" height="42" patternUnits="userSpaceOnUse">
      <path d="M42 0H0v42" fill="none" stroke="#3A1800" stroke-width="1" opacity=".3"/>
    </pattern>
  </defs>
  <rect width="1800" height="1080" fill="url(#stage)"/>
  <rect width="1800" height="1080" fill="url(#grid)"/>
  <path d="M0 840C260 760 428 830 640 754c260-93 351-322 642-315 207 5 358 132 518 80v561H0z" fill="#100600" opacity=".64"/>
  <text x="88" y="112" fill="#FFD2A6" font-family="SF Mono, Menlo, Consolas, monospace" font-size="56" font-weight="900">Gas Plasma</text>
  <text x="92" y="154" fill="#E8C547" font-family="SF Mono, Menlo, Consolas, monospace" font-size="24">Apple Terminal · iTerm2 · VS Code</text>
  <rect x="94" y="180" width="418" height="8" rx="4" fill="url(#accent)"/>

  <g filter="url(#shadow)">
    <rect x="88" y="232" width="640" height="480" rx="18" fill="url(#window)" stroke="#4D2600" stroke-width="2"/>
    <rect x="88" y="232" width="640" height="58" rx="18" fill="#261000"/>
    <path d="M88 272h640" stroke="#4D2600"/>
    <circle cx="128" cy="261" r="10" fill="#FF4500"/>
    <circle cx="160" cy="261" r="10" fill="#FFB347"/>
    <circle cx="192" cy="261" r="10" fill="#8B9A00"/>
    <text x="230" y="270" fill="#FFD2A6" font-family="SF Mono, Menlo, Consolas, monospace" font-size="19">GasPlasma.terminal</text>
    <text x="126" y="338" fill="#FF8C00" font-family="SF Mono, Menlo, Consolas, monospace" font-size="24">$ npm run build</text>
    <text x="126" y="382" fill="#FFD700" font-family="SF Mono, Menlo, Consolas, monospace" font-size="22">generated GasPlasma.itermcolors</text>
    <text x="126" y="422" fill="#E8C547" font-family="SF Mono, Menlo, Consolas, monospace" font-size="22">generated gas-plasma-color-theme.json</text>
    <text x="126" y="462" fill="#B5CC18" font-family="SF Mono, Menlo, Consolas, monospace" font-size="22">Generated GasPlasma.terminal</text>
    <text x="126" y="526" fill="#FF8C00" font-family="SF Mono, Menlo, Consolas, monospace" font-size="24">$ open GasPlasma.terminal</text>
    <text x="126" y="566" fill="#FF9B7A" font-family="SF Mono, Menlo, Consolas, monospace" font-size="22">$ code --install-extension gas-plasma</text>
    <rect x="126" y="620" width="14" height="30" fill="#FF8C00"/>
  </g>

  <g filter="url(#shadow)">
    <rect x="650" y="148" width="1062" height="746" rx="18" fill="#120600" stroke="#4D2600" stroke-width="2"/>
    <rect x="650" y="148" width="1062" height="60" rx="18" fill="#261000"/>
    <path d="M650 190h1062" stroke="#4D2600"/>
    <text x="690" y="185" fill="#FFF0DB" font-family="SF Mono, Menlo, Consolas, monospace" font-size="19">gas-plasma-color-theme.json</text>
    <rect x="650" y="208" width="220" height="686" fill="#0D0500"/>
    <g font-family="SF Mono, Menlo, Consolas, monospace" font-size="20">
      <g transform="translate(690 248)">
        <rect width="24" height="20" rx="4" fill="#FF8C00" stroke="#FFD2A6"/>
        <path d="M3 4h7l3 4h8" stroke="#FFF0DB" stroke-width="2" opacity=".55"/>
        <text x="36" y="18" fill="#FFD700">src</text>
      </g>
      <g transform="translate(690 288)">
        <rect width="24" height="24" rx="5" fill="#140800" stroke="#E8C547"/>
        <rect x="5" y="5" width="6" height="6" rx="2" fill="#FF4500"/>
        <rect x="13" y="5" width="6" height="6" rx="2" fill="#FFD700"/>
        <rect x="5" y="13" width="6" height="6" rx="2" fill="#8B9A00"/>
        <rect x="13" y="13" width="6" height="6" rx="2" fill="#E8C547"/>
        <text x="36" y="20" fill="#E8C547">themes</text>
      </g>
      <g transform="translate(690 328)">
        <circle cx="12" cy="12" r="11" fill="#E8C547" stroke="#FFD2A6"/>
        <circle cx="12" cy="12" r="4" fill="#140800" stroke="#FFF0DB"/>
        <text x="36" y="20" fill="#FF8C00">assets</text>
      </g>
      <g transform="translate(690 368)">
        <path d="M5 1h12l7 7v22H5z" fill="#FFD2A6" stroke="#FF8C00"/>
        <path d="M17 1v8h7" fill="#4D2600"/>
        <text x="36" y="20" fill="#FFD2A6">README.md</text>
      </g>
      <g transform="translate(690 408)">
        <circle cx="13" cy="17" r="12" fill="#140800" stroke="#FFD2A6"/>
        <path d="M8 21c1-10 3-15 6-15s5 5 6 15c-2 4-4 6-6 6s-4-2-6-6z" fill="#FFD2A6"/>
        <path d="M11 16h6" stroke="#FF8C00" stroke-width="3" stroke-linecap="round"/>
        <text x="36" y="24" fill="#FFF0DB">linux</text>
      </g>
      <g transform="translate(690 448)">
        <circle cx="10" cy="14" r="9" fill="#140800" stroke="#FFD700" stroke-width="3"/>
        <circle cx="18" cy="14" r="9" fill="none" stroke="#FFD2A6" stroke-width="3"/>
        <path d="M8 14h15" stroke="#FF8C00" stroke-width="3" stroke-linecap="round"/>
        <text x="36" y="22" fill="#FFD700">crypto</text>
      </g>
    </g>
    <rect x="870" y="208" width="842" height="506" fill="#1A0A00"/>
    <text x="770" y="220" font-family="SF Mono, Menlo, Consolas, monospace" font-size="25"><tspan fill="#8F4A00"> 1</tspan><tspan dx="34"><tspan fill="#FF6B3D">const </tspan><tspan fill="#FFD2A6">theme</tspan><tspan fill="#FFF0DB"> = </tspan><tspan fill="#FFF0DB">{</tspan></tspan></text>
  <text x="770" y="258" font-family="SF Mono, Menlo, Consolas, monospace" font-size="25"><tspan fill="#8F4A00"> 2</tspan><tspan dx="34"><tspan fill="#E8C547">  name</tspan><tspan fill="#FFF0DB">: </tspan><tspan fill="#B5CC18">'Gas Plasma'</tspan><tspan fill="#FFF0DB">,</tspan></tspan></text>
  <text x="770" y="296" font-family="SF Mono, Menlo, Consolas, monospace" font-size="25"><tspan fill="#8F4A00"> 3</tspan><tspan dx="34"><tspan fill="#E8C547">  background</tspan><tspan fill="#FFF0DB">: </tspan><tspan fill="#B5CC18">'#1A0A00'</tspan><tspan fill="#FFF0DB">,</tspan></tspan></text>
  <text x="770" y="334" font-family="SF Mono, Menlo, Consolas, monospace" font-size="25"><tspan fill="#8F4A00"> 4</tspan><tspan dx="34"><tspan fill="#E8C547">  foreground</tspan><tspan fill="#FFF0DB">: </tspan><tspan fill="#B5CC18">'#FF8C00'</tspan><tspan fill="#FFF0DB">,</tspan></tspan></text>
  <text x="770" y="372" font-family="SF Mono, Menlo, Consolas, monospace" font-size="25"><tspan fill="#8F4A00"> 5</tspan><tspan dx="34"><tspan fill="#E8C547">  accents</tspan><tspan fill="#FFF0DB">: [</tspan><tspan fill="#B5CC18">'plasma'</tspan><tspan fill="#FFF0DB">, </tspan><tspan fill="#B5CC18">'ember'</tspan><tspan fill="#FFF0DB">]</tspan></tspan></text>
  <text x="770" y="410" font-family="SF Mono, Menlo, Consolas, monospace" font-size="25"><tspan fill="#8F4A00"> 6</tspan><tspan dx="34"><tspan fill="#FFF0DB">};</tspan></tspan></text>
  <text x="770" y="486" font-family="SF Mono, Menlo, Consolas, monospace" font-size="25"><tspan fill="#8F4A00"> 7</tspan><tspan dx="34"><tspan fill="#FF6B3D">export </tspan><tspan fill="#FF6B3D">default </tspan><tspan fill="#FFD2A6">theme</tspan><tspan fill="#FFF0DB">;</tspan></tspan></text>
    <rect x="870" y="714" width="842" height="132" fill="#100600" stroke="#4D2600"/>
    <text x="905" y="764" fill="#FF8C00" font-family="SF Mono, Menlo, Consolas, monospace" font-size="22">$ npm run package</text>
    <text x="905" y="804" fill="#B5CC18" font-family="SF Mono, Menlo, Consolas, monospace" font-size="22">DONE Packaged: jpfchang.gas-plasma-theme-0.1.0.vsix</text>
    <rect x="650" y="846" width="1062" height="48" rx="0" fill="#3A1800"/>
    <text x="690" y="878" fill="#FFF0DB" font-family="SF Mono, Menlo, Consolas, monospace" font-size="18">Open VSX namespace: jpfchang</text>
  </g>

  <g transform="translate(110, 755)">
    <rect width="52" height="52" rx="8" fill="#1A0A00" stroke="#4D2600"/>
    <text x="26" y="78" text-anchor="middle" fill="#FFD2A6" font-family="SF Mono, Menlo, Consolas, monospace" font-size="14">bg</text>
  </g>
  <g transform="translate(188, 755)">
    <rect width="52" height="52" rx="8" fill="#FF8C00" stroke="#4D2600"/>
    <text x="26" y="78" text-anchor="middle" fill="#FFD2A6" font-family="SF Mono, Menlo, Consolas, monospace" font-size="14">fg</text>
  </g>
  <g transform="translate(266, 755)">
    <rect width="52" height="52" rx="8" fill="#FF4500" stroke="#4D2600"/>
    <text x="26" y="78" text-anchor="middle" fill="#FFD2A6" font-family="SF Mono, Menlo, Consolas, monospace" font-size="14">red</text>
  </g>
  <g transform="translate(344, 755)">
    <rect width="52" height="52" rx="8" fill="#8B9A00" stroke="#4D2600"/>
    <text x="26" y="78" text-anchor="middle" fill="#FFD2A6" font-family="SF Mono, Menlo, Consolas, monospace" font-size="14">green</text>
  </g>
  <g transform="translate(422, 755)">
    <rect width="52" height="52" rx="8" fill="#FFD700" stroke="#4D2600"/>
    <text x="26" y="78" text-anchor="middle" fill="#FFD2A6" font-family="SF Mono, Menlo, Consolas, monospace" font-size="14">yellow</text>
  </g>
  <g transform="translate(500, 755)">
    <rect width="52" height="52" rx="8" fill="#E8C547" stroke="#4D2600"/>
    <text x="26" y="78" text-anchor="middle" fill="#FFD2A6" font-family="SF Mono, Menlo, Consolas, monospace" font-size="14">cyan</text>
  </g>
  <g transform="translate(578, 755)">
    <rect width="52" height="52" rx="8" fill="#FFF0DB" stroke="#4D2600"/>
    <text x="26" y="78" text-anchor="middle" fill="#FFD2A6" font-family="SF Mono, Menlo, Consolas, monospace" font-size="14">white</text>
  </g>
  <g transform="translate(86 920)">
    <rect width="362" height="62" rx="8" fill="#1A0A00" stroke="#CC7A00"/>
    <text x="28" y="40" fill="#FFD2A6" font-family="SF Mono, Menlo, Consolas, monospace" font-size="22">#1A0A00 / #FF8C00</text>
  </g>
  <g transform="translate(486 920)">
    <rect width="350" height="62" rx="8" fill="#1A0A00" stroke="#8B9A00"/>
    <text x="28" y="40" fill="#B5CC18" font-family="SF Mono, Menlo, Consolas, monospace" font-size="22">syntax colors intact</text>
  </g>
  <g transform="translate(874 920)">
    <rect width="452" height="62" rx="8" fill="#1A0A00" stroke="#E8C547"/>
    <text x="28" y="40" fill="#E8C547" font-family="SF Mono, Menlo, Consolas, monospace" font-size="22">single palette, four targets</text>
  </g>
</svg>
