<svg xmlns="http://www.w3.org/2000/svg" width="1600" height="1000" viewBox="0 0 1600 1000" role="img" aria-labelledby="title desc">
  <title id="title">Gas Plasma theme mockup</title>
  <desc id="desc">A design mockup showing Gas Plasma in terminal and editor windows.</desc>
  <defs>
    <radialGradient id="bg" cx="50%" cy="45%" r="80%">
      <stop offset="0" stop-color="#4D2600"/>
      <stop offset="0.45" stop-color="#1A0A00"/>
      <stop offset="1" stop-color="#0D0500"/>
    </radialGradient>
    <filter id="softGlow" x="-20%" y="-20%" width="140%" height="140%">
      <feGaussianBlur stdDeviation="18"/>
    </filter>
  </defs>
  <rect width="1600" height="1000" fill="url(#bg)"/>
  <circle cx="1320" cy="130" r="150" fill="#FF4500" opacity=".22" filter="url(#softGlow)"/>
  <circle cx="210" cy="870" r="180" fill="#FFD700" opacity=".14" filter="url(#softGlow)"/>
  <rect x="72" y="110" width="640" height="520" rx="18" fill="#1A0A00" stroke="#4D2600" stroke-width="2"/>
  <rect x="72" y="110" width="640" height="56" rx="18" fill="#261000"/>
  <circle cx="112" cy="139" r="10" fill="#FF4500"/>
  <circle cx="144" cy="139" r="10" fill="#FFB347"/>
  <circle cx="176" cy="139" r="10" fill="#8B9A00"/>
  <text x="220" y="148" fill="#FFD2A6" font-family="SF Mono, Menlo, Consolas, monospace" font-size="20">Gas Plasma Terminal</text>
  <rect x="120" y="205" width="320" height="12" rx="6" fill="#FFD700" opacity=".9"/>
  <rect x="120" y="239" width="250" height="12" rx="6" fill="#FF4500" opacity=".9"/>
  <rect x="120" y="273" width="290" height="12" rx="6" fill="#8B9A00" opacity=".9"/>
  <rect x="120" y="307" width="210" height="12" rx="6" fill="#E8C547" opacity=".9"/>
  <rect x="120" y="341" width="360" height="12" rx="6" fill="#FFD700" opacity=".9"/>
  <rect x="120" y="375" width="275" height="12" rx="6" fill="#FF4500" opacity=".9"/>
  <rect x="120" y="409" width="330" height="12" rx="6" fill="#8B9A00" opacity=".9"/>
  <rect x="120" y="443" width="230" height="12" rx="6" fill="#E8C547" opacity=".9"/>
  <text x="118" y="535" fill="#FF8C00" font-family="SF Mono, Menlo, Consolas, monospace" font-size="24">$ swift generate-theme.swift</text>
  <rect x="505" y="510" width="14" height="30" fill="#FF8C00"/>
  <rect x="520" y="185" width="980" height="660" rx="18" fill="#140800" stroke="#4D2600" stroke-width="2"/>
  <rect x="520" y="185" width="980" height="58" rx="18" fill="#261000"/>
  <text x="560" y="222" fill="#FFF0DB" font-family="SF Mono, Menlo, Consolas, monospace" font-size="20">gas-plasma-color-theme.json</text>
  <rect x="520" y="245" width="190" height="600" fill="#100600"/>
  <text x="555" y="295" fill="#E8C547" font-family="SF Mono, Menlo, Consolas, monospace" font-size="21">themes</text>
  <text x="555" y="335" fill="#FF8C00" font-family="SF Mono, Menlo, Consolas, monospace" font-size="21">assets</text>
  <text x="555" y="375" fill="#FFD2A6" font-family="SF Mono, Menlo, Consolas, monospace" font-size="21">README.md</text>
  <text x="565" y="210" fill="#FF6B3D" font-family="SF Mono, Menlo, Consolas, monospace" font-size="26">const plasma = createTheme({</text>
  <text x="565" y="252" fill="#FFD2A6" font-family="SF Mono, Menlo, Consolas, monospace" font-size="26">  background: '#1A0A00',</text>
  <text x="565" y="294" fill="#FFB347" font-family="SF Mono, Menlo, Consolas, monospace" font-size="26">  foreground: '#FF8C00',</text>
  <text x="565" y="336" fill="#E8C547" font-family="SF Mono, Menlo, Consolas, monospace" font-size="26">  accent: ionize(tokens),</text>
  <text x="565" y="378" fill="#FF6B6B" font-family="SF Mono, Menlo, Consolas, monospace" font-size="26">});</text>
  <rect x="565" y="465" width="760" height="2" fill="#4D2600"/>
  <rect x="565" y="510" width="640" height="22" rx="11" fill="#FF4500" opacity=".78"/>
  <rect x="565" y="555" width="720" height="22" rx="11" fill="#B5CC18" opacity=".78"/>
  <rect x="565" y="600" width="510" height="22" rx="11" fill="#E09530" opacity=".78"/>
  <rect x="565" y="645" width="690" height="22" rx="11" fill="#FF9B7A" opacity=".78"/>
  <rect x="565" y="715" width="840" height="78" rx="16" fill="#1A0A00" stroke="#CC7A00"/>
  <text x="600" y="765" fill="#FF8C00" font-family="SF Mono, Menlo, Consolas, monospace" font-size="24">Open VSX: johnthre.gas-plasma-theme</text>
</svg>
